<mxfile host="Electron" modified="2023-11-02T16:52:56.215Z" agent="Mozilla/5.0 (Windows NT 10.0; Win64; x64) AppleWebKit/537.36 (KHTML, like Gecko) draw.io/21.8.2 Chrome/114.0.5735.289 Electron/25.8.1 Safari/537.36" etag="9sGjOjfBCvNSFd3Ei_6k" version="21.8.2" type="device">
  <diagram name="Page-1" id="5f0bae14-7c28-e335-631c-24af17079c00">
    <mxGraphModel dx="1036" dy="606" grid="1" gridSize="10" guides="1" tooltips="1" connect="1" arrows="1" fold="1" page="1" pageScale="1" pageWidth="1100" pageHeight="850" background="none" math="0" shadow="0">
      <root>
        <mxCell id="0" />
        <mxCell id="1" parent="0" />
        <mxCell id="z-8w9EnXy9jadOtp1Kh0-9" value="HTTP" style="edgeStyle=orthogonalEdgeStyle;rounded=0;orthogonalLoop=1;jettySize=auto;html=1;exitX=0.5;exitY=1;exitDx=0;exitDy=0;entryX=0.5;entryY=0;entryDx=0;entryDy=0;" edge="1" parent="1" source="t32K_nqp5lFoHQ5uEv4J-2" target="t32K_nqp5lFoHQ5uEv4J-7">
          <mxGeometry relative="1" as="geometry" />
        </mxCell>
        <mxCell id="t32K_nqp5lFoHQ5uEv4J-2" value="&lt;font style=&quot;font-size: 11px;&quot;&gt;Image&amp;nbsp;Service&lt;/font&gt;" style="rounded=1;whiteSpace=wrap;html=1;" parent="1" vertex="1">
          <mxGeometry x="400" y="340" width="80" height="40" as="geometry" />
        </mxCell>
        <mxCell id="z-8w9EnXy9jadOtp1Kh0-4" value="HTTP" style="edgeStyle=orthogonalEdgeStyle;rounded=0;orthogonalLoop=1;jettySize=auto;html=1;exitX=0;exitY=0.5;exitDx=0;exitDy=0;entryX=1;entryY=0.5;entryDx=0;entryDy=0;" edge="1" parent="1" source="t32K_nqp5lFoHQ5uEv4J-3" target="t32K_nqp5lFoHQ5uEv4J-5">
          <mxGeometry relative="1" as="geometry" />
        </mxCell>
        <mxCell id="z-8w9EnXy9jadOtp1Kh0-7" value="rpc" style="edgeStyle=orthogonalEdgeStyle;rounded=0;orthogonalLoop=1;jettySize=auto;html=1;exitX=0.5;exitY=1;exitDx=0;exitDy=0;entryX=0.5;entryY=0;entryDx=0;entryDy=0;" edge="1" parent="1" source="t32K_nqp5lFoHQ5uEv4J-3" target="t32K_nqp5lFoHQ5uEv4J-2">
          <mxGeometry relative="1" as="geometry" />
        </mxCell>
        <mxCell id="z-8w9EnXy9jadOtp1Kh0-8" value="rpc&lt;br&gt;" style="rounded=0;orthogonalLoop=1;jettySize=auto;html=1;exitX=1;exitY=1;exitDx=0;exitDy=0;entryX=0;entryY=0;entryDx=0;entryDy=0;" edge="1" parent="1" source="t32K_nqp5lFoHQ5uEv4J-3" target="7G6fiu3_6PxhdW2tJC55-1">
          <mxGeometry x="-0.5" relative="1" as="geometry">
            <mxPoint x="530" y="340" as="targetPoint" />
            <mxPoint as="offset" />
          </mxGeometry>
        </mxCell>
        <mxCell id="t32K_nqp5lFoHQ5uEv4J-3" value="&lt;font style=&quot;font-size: 11px;&quot;&gt;API Gateway&lt;/font&gt;" style="rounded=1;whiteSpace=wrap;html=1;" parent="1" vertex="1">
          <mxGeometry x="400" y="220" width="80" height="40" as="geometry" />
        </mxCell>
        <mxCell id="t32K_nqp5lFoHQ5uEv4J-5" value="&lt;font style=&quot;font-size: 11px;&quot;&gt;Redis Cache&lt;/font&gt;" style="rounded=1;whiteSpace=wrap;html=1;" parent="1" vertex="1">
          <mxGeometry x="240" y="220" width="80" height="40" as="geometry" />
        </mxCell>
        <mxCell id="t32K_nqp5lFoHQ5uEv4J-7" value="&lt;font style=&quot;font-size: 11px;&quot;&gt;Image DB&lt;/font&gt;" style="rounded=1;whiteSpace=wrap;html=1;" parent="1" vertex="1">
          <mxGeometry x="400" y="440" width="80" height="40" as="geometry" />
        </mxCell>
        <mxCell id="z-8w9EnXy9jadOtp1Kh0-10" value="HTTP" style="edgeStyle=orthogonalEdgeStyle;rounded=0;orthogonalLoop=1;jettySize=auto;html=1;exitX=0.5;exitY=1;exitDx=0;exitDy=0;entryX=0.5;entryY=0;entryDx=0;entryDy=0;" edge="1" parent="1" source="7G6fiu3_6PxhdW2tJC55-1" target="7G6fiu3_6PxhdW2tJC55-20">
          <mxGeometry relative="1" as="geometry" />
        </mxCell>
        <mxCell id="7G6fiu3_6PxhdW2tJC55-1" value="&lt;font style=&quot;font-size: 11px;&quot;&gt;Feed service&lt;/font&gt;" style="rounded=1;whiteSpace=wrap;html=1;" parent="1" vertex="1">
          <mxGeometry x="600" y="340" width="80" height="40" as="geometry" />
        </mxCell>
        <mxCell id="7G6fiu3_6PxhdW2tJC55-20" value="&lt;font style=&quot;font-size: 11px;&quot;&gt;Analytics DB&lt;br&gt;&lt;/font&gt;" style="rounded=1;whiteSpace=wrap;html=1;" parent="1" vertex="1">
          <mxGeometry x="600" y="440" width="80" height="40" as="geometry" />
        </mxCell>
        <mxCell id="z-8w9EnXy9jadOtp1Kh0-14" value="HTTP" style="edgeStyle=orthogonalEdgeStyle;rounded=0;orthogonalLoop=1;jettySize=auto;html=1;exitX=0;exitY=0.5;exitDx=0;exitDy=0;entryX=1;entryY=0.5;entryDx=0;entryDy=0;" edge="1" parent="1" source="z-8w9EnXy9jadOtp1Kh0-11" target="t32K_nqp5lFoHQ5uEv4J-3">
          <mxGeometry relative="1" as="geometry" />
        </mxCell>
        <mxCell id="z-8w9EnXy9jadOtp1Kh0-15" value="HTTP" style="edgeStyle=none;rounded=0;orthogonalLoop=1;jettySize=auto;html=1;exitX=0;exitY=1;exitDx=0;exitDy=0;entryX=1;entryY=0;entryDx=0;entryDy=0;" edge="1" parent="1" source="z-8w9EnXy9jadOtp1Kh0-11" target="t32K_nqp5lFoHQ5uEv4J-2">
          <mxGeometry x="-0.5" relative="1" as="geometry">
            <mxPoint as="offset" />
          </mxGeometry>
        </mxCell>
        <mxCell id="z-8w9EnXy9jadOtp1Kh0-16" value="HTTP" style="edgeStyle=none;rounded=0;orthogonalLoop=1;jettySize=auto;html=1;exitX=0.5;exitY=1;exitDx=0;exitDy=0;entryX=0.5;entryY=0;entryDx=0;entryDy=0;" edge="1" parent="1" source="z-8w9EnXy9jadOtp1Kh0-11" target="7G6fiu3_6PxhdW2tJC55-1">
          <mxGeometry relative="1" as="geometry" />
        </mxCell>
        <mxCell id="z-8w9EnXy9jadOtp1Kh0-11" value="&lt;font style=&quot;font-size: 11px;&quot;&gt;Prometheus&lt;/font&gt;" style="rounded=1;whiteSpace=wrap;html=1;" vertex="1" parent="1">
          <mxGeometry x="600" y="220" width="80" height="40" as="geometry" />
        </mxCell>
        <mxCell id="z-8w9EnXy9jadOtp1Kh0-13" value="HTTP" style="edgeStyle=orthogonalEdgeStyle;rounded=0;orthogonalLoop=1;jettySize=auto;html=1;exitX=0;exitY=0.5;exitDx=0;exitDy=0;entryX=1;entryY=0.5;entryDx=0;entryDy=0;" edge="1" parent="1" source="z-8w9EnXy9jadOtp1Kh0-12" target="z-8w9EnXy9jadOtp1Kh0-11">
          <mxGeometry relative="1" as="geometry" />
        </mxCell>
        <mxCell id="z-8w9EnXy9jadOtp1Kh0-12" value="&lt;font style=&quot;font-size: 11px;&quot;&gt;Grafana&lt;/font&gt;" style="rounded=1;whiteSpace=wrap;html=1;" vertex="1" parent="1">
          <mxGeometry x="760" y="220" width="80" height="40" as="geometry" />
        </mxCell>
        <mxCell id="z-8w9EnXy9jadOtp1Kh0-17" value="(cluster)" style="text;html=1;strokeColor=none;fillColor=none;align=center;verticalAlign=middle;whiteSpace=wrap;rounded=0;" vertex="1" parent="1">
          <mxGeometry x="680" y="345" width="50" height="30" as="geometry" />
        </mxCell>
        <mxCell id="z-8w9EnXy9jadOtp1Kh0-18" value="(cluster)" style="text;html=1;strokeColor=none;fillColor=none;align=center;verticalAlign=middle;whiteSpace=wrap;rounded=0;" vertex="1" parent="1">
          <mxGeometry x="480" y="345" width="50" height="30" as="geometry" />
        </mxCell>
        <mxCell id="z-8w9EnXy9jadOtp1Kh0-19" value="(cluster)" style="text;html=1;strokeColor=none;fillColor=none;align=center;verticalAlign=middle;whiteSpace=wrap;rounded=0;" vertex="1" parent="1">
          <mxGeometry x="480" y="445" width="50" height="30" as="geometry" />
        </mxCell>
        <mxCell id="z-8w9EnXy9jadOtp1Kh0-20" value="(cluster)" style="text;html=1;strokeColor=none;fillColor=none;align=center;verticalAlign=middle;whiteSpace=wrap;rounded=0;" vertex="1" parent="1">
          <mxGeometry x="190" y="225" width="50" height="30" as="geometry" />
        </mxCell>
      </root>
    </mxGraphModel>
  </diagram>
</mxfile>
